<mxfile host="65bd71144e">
    <diagram id="vGvuT7mZyQ3hUfb2jbu2" name="Page-1">
        <mxGraphModel dx="1676" dy="926" grid="1" gridSize="10" guides="1" tooltips="1" connect="1" arrows="1" fold="1" page="1" pageScale="1" pageWidth="850" pageHeight="1100" math="0" shadow="0">
            <root>
                <mxCell id="0"/>
                <mxCell id="1" parent="0"/>
                <mxCell id="14" style="edgeStyle=none;html=1;endArrow=block;endFill=0;endSize=10;" edge="1" parent="1" source="2" target="6">
                    <mxGeometry relative="1" as="geometry"/>
                </mxCell>
                <mxCell id="15" style="edgeStyle=none;html=1;endArrow=block;endFill=0;endSize=10;" edge="1" parent="1" source="2" target="10">
                    <mxGeometry relative="1" as="geometry"/>
                </mxCell>
                <mxCell id="16" value="&amp;lt;&amp;lt;implement&amp;gt;&amp;gt;" style="edgeLabel;html=1;align=center;verticalAlign=middle;resizable=0;points=[];" vertex="1" connectable="0" parent="15">
                    <mxGeometry x="0.2905" y="-1" relative="1" as="geometry">
                        <mxPoint as="offset"/>
                    </mxGeometry>
                </mxCell>
                <mxCell id="2" value="Location" style="swimlane;fontStyle=1;align=center;verticalAlign=top;childLayout=stackLayout;horizontal=1;startSize=26;horizontalStack=0;resizeParent=1;resizeParentMax=0;resizeLast=0;collapsible=1;marginBottom=0;" vertex="1" parent="1">
                    <mxGeometry x="240" y="290" width="270" height="150" as="geometry"/>
                </mxCell>
                <mxCell id="3" value="- _inventory: Inventory" style="text;strokeColor=none;fillColor=none;align=left;verticalAlign=top;spacingLeft=4;spacingRight=4;overflow=hidden;rotatable=0;points=[[0,0.5],[1,0.5]];portConstraint=eastwest;" vertex="1" parent="2">
                    <mxGeometry y="26" width="270" height="26" as="geometry"/>
                </mxCell>
                <mxCell id="4" value="" style="line;strokeWidth=1;fillColor=none;align=left;verticalAlign=middle;spacingTop=-1;spacingLeft=3;spacingRight=3;rotatable=0;labelPosition=right;points=[];portConstraint=eastwest;strokeColor=inherit;" vertex="1" parent="2">
                    <mxGeometry y="52" width="270" height="8" as="geometry"/>
                </mxCell>
                <mxCell id="5" value="+ Location(string name, string desc)&#10;&#10;+ Locate(string id): GameObject&#10;+ FullDescription: string &lt;&lt;read-only property&gt;&gt;&#10;+ Inventory: Inventory &lt;&lt;read-only property&gt;&gt;" style="text;strokeColor=none;fillColor=none;align=left;verticalAlign=top;spacingLeft=4;spacingRight=4;overflow=hidden;rotatable=0;points=[[0,0.5],[1,0.5]];portConstraint=eastwest;" vertex="1" parent="2">
                    <mxGeometry y="60" width="270" height="90" as="geometry"/>
                </mxCell>
                <mxCell id="6" value="GameObject" style="swimlane;fontStyle=1;align=center;verticalAlign=top;childLayout=stackLayout;horizontal=1;startSize=26;horizontalStack=0;resizeParent=1;resizeParentMax=0;resizeLast=0;collapsible=1;marginBottom=0;" vertex="1" collapsed="1" parent="1">
                    <mxGeometry x="250" y="160" width="110" height="30" as="geometry">
                        <mxRectangle x="265" y="100" width="160" height="86" as="alternateBounds"/>
                    </mxGeometry>
                </mxCell>
                <mxCell id="7" value="+ field: type" style="text;strokeColor=none;fillColor=none;align=left;verticalAlign=top;spacingLeft=4;spacingRight=4;overflow=hidden;rotatable=0;points=[[0,0.5],[1,0.5]];portConstraint=eastwest;" vertex="1" parent="6">
                    <mxGeometry y="26" width="160" height="26" as="geometry"/>
                </mxCell>
                <mxCell id="8" value="" style="line;strokeWidth=1;fillColor=none;align=left;verticalAlign=middle;spacingTop=-1;spacingLeft=3;spacingRight=3;rotatable=0;labelPosition=right;points=[];portConstraint=eastwest;strokeColor=inherit;" vertex="1" parent="6">
                    <mxGeometry y="52" width="160" height="8" as="geometry"/>
                </mxCell>
                <mxCell id="9" value="+ method(type): type" style="text;strokeColor=none;fillColor=none;align=left;verticalAlign=top;spacingLeft=4;spacingRight=4;overflow=hidden;rotatable=0;points=[[0,0.5],[1,0.5]];portConstraint=eastwest;" vertex="1" parent="6">
                    <mxGeometry y="60" width="160" height="26" as="geometry"/>
                </mxCell>
                <mxCell id="10" value="IHaveInventory" style="swimlane;fontStyle=1;align=center;verticalAlign=top;childLayout=stackLayout;horizontal=1;startSize=26;horizontalStack=0;resizeParent=1;resizeParentMax=0;resizeLast=0;collapsible=1;marginBottom=0;" vertex="1" collapsed="1" parent="1">
                    <mxGeometry x="400" y="160" width="110" height="30" as="geometry">
                        <mxRectangle x="265" y="100" width="160" height="86" as="alternateBounds"/>
                    </mxGeometry>
                </mxCell>
                <mxCell id="11" value="+ field: type" style="text;strokeColor=none;fillColor=none;align=left;verticalAlign=top;spacingLeft=4;spacingRight=4;overflow=hidden;rotatable=0;points=[[0,0.5],[1,0.5]];portConstraint=eastwest;" vertex="1" parent="10">
                    <mxGeometry y="26" width="160" height="26" as="geometry"/>
                </mxCell>
                <mxCell id="12" value="" style="line;strokeWidth=1;fillColor=none;align=left;verticalAlign=middle;spacingTop=-1;spacingLeft=3;spacingRight=3;rotatable=0;labelPosition=right;points=[];portConstraint=eastwest;strokeColor=inherit;" vertex="1" parent="10">
                    <mxGeometry y="52" width="160" height="8" as="geometry"/>
                </mxCell>
                <mxCell id="13" value="+ method(type): type" style="text;strokeColor=none;fillColor=none;align=left;verticalAlign=top;spacingLeft=4;spacingRight=4;overflow=hidden;rotatable=0;points=[[0,0.5],[1,0.5]];portConstraint=eastwest;" vertex="1" parent="10">
                    <mxGeometry y="60" width="160" height="26" as="geometry"/>
                </mxCell>
                <mxCell id="21" value="" style="edgeStyle=none;html=1;endArrow=openThin;endFill=0;endSize=10;" edge="1" parent="1" source="17" target="5">
                    <mxGeometry relative="1" as="geometry"/>
                </mxCell>
                <mxCell id="17" value="Player" style="swimlane;fontStyle=1;align=center;verticalAlign=top;childLayout=stackLayout;horizontal=1;startSize=26;horizontalStack=0;resizeParent=1;resizeParentMax=0;resizeLast=0;collapsible=1;marginBottom=0;" vertex="1" collapsed="1" parent="1">
                    <mxGeometry x="325" y="510" width="100" height="30" as="geometry">
                        <mxRectangle x="310" y="480" width="160" height="86" as="alternateBounds"/>
                    </mxGeometry>
                </mxCell>
                <mxCell id="18" value="+ field: type" style="text;strokeColor=none;fillColor=none;align=left;verticalAlign=top;spacingLeft=4;spacingRight=4;overflow=hidden;rotatable=0;points=[[0,0.5],[1,0.5]];portConstraint=eastwest;" vertex="1" parent="17">
                    <mxGeometry y="26" width="160" height="26" as="geometry"/>
                </mxCell>
                <mxCell id="19" value="" style="line;strokeWidth=1;fillColor=none;align=left;verticalAlign=middle;spacingTop=-1;spacingLeft=3;spacingRight=3;rotatable=0;labelPosition=right;points=[];portConstraint=eastwest;strokeColor=inherit;" vertex="1" parent="17">
                    <mxGeometry y="52" width="160" height="8" as="geometry"/>
                </mxCell>
                <mxCell id="20" value="+ method(type): type" style="text;strokeColor=none;fillColor=none;align=left;verticalAlign=top;spacingLeft=4;spacingRight=4;overflow=hidden;rotatable=0;points=[[0,0.5],[1,0.5]];portConstraint=eastwest;" vertex="1" parent="17">
                    <mxGeometry y="60" width="160" height="26" as="geometry"/>
                </mxCell>
                <mxCell id="24" value="p: Player" style="shape=umlLifeline;perimeter=lifelinePerimeter;whiteSpace=wrap;html=1;container=1;collapsible=0;recursiveResize=0;outlineConnect=0;" vertex="1" parent="1">
                    <mxGeometry x="190" y="640" width="100" height="410" as="geometry"/>
                </mxCell>
                <mxCell id="31" value="" style="html=1;points=[];perimeter=orthogonalPerimeter;" vertex="1" parent="24">
                    <mxGeometry x="40" y="80" width="20" height="310" as="geometry"/>
                </mxCell>
                <mxCell id="32" value="Locate &quot;gem&quot;" style="html=1;verticalAlign=bottom;endArrow=block;entryX=0;entryY=0;endSize=10;" edge="1" target="31" parent="24">
                    <mxGeometry relative="1" as="geometry">
                        <mxPoint x="-90" y="80" as="sourcePoint"/>
                    </mxGeometry>
                </mxCell>
                <mxCell id="33" value="gem" style="html=1;verticalAlign=bottom;endArrow=open;dashed=1;endSize=8;exitX=0;exitY=0.95;" edge="1" source="31" parent="24">
                    <mxGeometry relative="1" as="geometry">
                        <mxPoint x="-90" y="374" as="targetPoint"/>
                    </mxGeometry>
                </mxCell>
                <mxCell id="35" value="" style="html=1;points=[];perimeter=orthogonalPerimeter;" vertex="1" parent="24">
                    <mxGeometry x="50" y="120" width="20" height="20" as="geometry"/>
                </mxCell>
                <mxCell id="36" value="AreYou &quot;gem&quot;" style="edgeStyle=orthogonalEdgeStyle;html=1;align=left;spacingLeft=2;endArrow=block;rounded=0;entryX=1;entryY=0;endSize=10;exitX=1.133;exitY=0.072;exitDx=0;exitDy=0;exitPerimeter=0;" edge="1" target="35" parent="24" source="31">
                    <mxGeometry x="-0.8101" y="10" relative="1" as="geometry">
                        <mxPoint x="65" y="100" as="sourcePoint"/>
                        <Array as="points">
                            <mxPoint x="95" y="100"/>
                            <mxPoint x="95" y="120"/>
                        </Array>
                        <mxPoint as="offset"/>
                    </mxGeometry>
                </mxCell>
                <mxCell id="37" value="False" style="edgeStyle=orthogonalEdgeStyle;html=1;align=left;spacingLeft=2;endArrow=block;rounded=0;endSize=10;exitX=1.133;exitY=0.072;exitDx=0;exitDy=0;exitPerimeter=0;dashed=1;" edge="1" parent="24">
                    <mxGeometry x="-0.1064" y="-2" relative="1" as="geometry">
                        <mxPoint x="70.00000000000006" y="129.9999999999999" as="sourcePoint"/>
                        <Array as="points">
                            <mxPoint x="102" y="130"/>
                            <mxPoint x="102" y="150"/>
                        </Array>
                        <mxPoint x="60" y="150" as="targetPoint"/>
                        <mxPoint as="offset"/>
                    </mxGeometry>
                </mxCell>
                <mxCell id="25" value="pi: Inventory" style="shape=umlLifeline;perimeter=lifelinePerimeter;whiteSpace=wrap;html=1;container=1;collapsible=0;recursiveResize=0;outlineConnect=0;" vertex="1" parent="1">
                    <mxGeometry x="360" y="640" width="100" height="410" as="geometry"/>
                </mxCell>
                <mxCell id="38" value="" style="html=1;points=[];perimeter=orthogonalPerimeter;" vertex="1" parent="25">
                    <mxGeometry x="40" y="180" width="20" height="100" as="geometry"/>
                </mxCell>
                <mxCell id="26" value=":Item" style="shape=umlLifeline;perimeter=lifelinePerimeter;whiteSpace=wrap;html=1;container=1;collapsible=0;recursiveResize=0;outlineConnect=0;" vertex="1" parent="1">
                    <mxGeometry x="530" y="640" width="100" height="410" as="geometry"/>
                </mxCell>
                <mxCell id="41" value="" style="html=1;points=[];perimeter=orthogonalPerimeter;" vertex="1" parent="26">
                    <mxGeometry x="40" y="210" width="20" height="40" as="geometry"/>
                </mxCell>
                <mxCell id="27" value="pl: Location" style="shape=umlLifeline;perimeter=lifelinePerimeter;whiteSpace=wrap;html=1;container=1;collapsible=0;recursiveResize=0;outlineConnect=0;" vertex="1" parent="1">
                    <mxGeometry x="710" y="640" width="100" height="410" as="geometry"/>
                </mxCell>
                <mxCell id="47" value="" style="html=1;points=[];perimeter=orthogonalPerimeter;" vertex="1" parent="27">
                    <mxGeometry x="40" y="300" width="20" height="80" as="geometry"/>
                </mxCell>
                <mxCell id="28" value="li: Inventory" style="shape=umlLifeline;perimeter=lifelinePerimeter;whiteSpace=wrap;html=1;container=1;collapsible=0;recursiveResize=0;outlineConnect=0;" vertex="1" parent="1">
                    <mxGeometry x="890" y="640" width="100" height="410" as="geometry"/>
                </mxCell>
                <mxCell id="50" value="" style="html=1;points=[];perimeter=orthogonalPerimeter;" vertex="1" parent="28">
                    <mxGeometry x="40" y="320" width="20" height="50" as="geometry"/>
                </mxCell>
                <mxCell id="29" value="gem: Item" style="shape=umlLifeline;perimeter=lifelinePerimeter;whiteSpace=wrap;html=1;container=1;collapsible=0;recursiveResize=0;outlineConnect=0;" vertex="1" parent="1">
                    <mxGeometry x="1070" y="640" width="100" height="410" as="geometry"/>
                </mxCell>
                <mxCell id="53" value="" style="html=1;points=[];perimeter=orthogonalPerimeter;" vertex="1" parent="29">
                    <mxGeometry x="40" y="334" width="20" height="26" as="geometry"/>
                </mxCell>
                <mxCell id="39" value="Fetch &quot;gem&quot;" style="html=1;verticalAlign=bottom;endArrow=block;entryX=0;entryY=0;endSize=10;exitX=1.1;exitY=0.324;exitDx=0;exitDy=0;exitPerimeter=0;" edge="1" target="38" parent="1" source="31">
                    <mxGeometry relative="1" as="geometry">
                        <mxPoint x="330" y="820" as="sourcePoint"/>
                    </mxGeometry>
                </mxCell>
                <mxCell id="40" value="null" style="html=1;verticalAlign=bottom;endArrow=open;dashed=1;endSize=8;exitX=0;exitY=0.95;entryX=1.1;entryY=0.634;entryDx=0;entryDy=0;entryPerimeter=0;" edge="1" source="38" parent="1" target="31">
                    <mxGeometry x="0.0716" y="15" relative="1" as="geometry">
                        <mxPoint x="330" y="896" as="targetPoint"/>
                        <mxPoint as="offset"/>
                    </mxGeometry>
                </mxCell>
                <mxCell id="42" value="AreYou &quot;gem&quot;" style="html=1;verticalAlign=bottom;endArrow=block;entryX=0;entryY=0;endSize=10;exitX=1.167;exitY=0.306;exitDx=0;exitDy=0;exitPerimeter=0;" edge="1" target="41" parent="1" source="38">
                    <mxGeometry relative="1" as="geometry">
                        <mxPoint x="470" y="830" as="sourcePoint"/>
                    </mxGeometry>
                </mxCell>
                <mxCell id="43" value="False" style="html=1;verticalAlign=bottom;endArrow=open;dashed=1;endSize=8;exitX=0;exitY=0.95;entryX=1.167;entryY=0.683;entryDx=0;entryDy=0;entryPerimeter=0;" edge="1" source="41" parent="1" target="38">
                    <mxGeometry relative="1" as="geometry">
                        <mxPoint x="470" y="906" as="targetPoint"/>
                    </mxGeometry>
                </mxCell>
                <mxCell id="45" value="Loop each item" style="shape=umlFrame;whiteSpace=wrap;html=1;" vertex="1" parent="1">
                    <mxGeometry x="160" y="830" width="450" height="70" as="geometry"/>
                </mxCell>
                <mxCell id="48" value="Locate &quot;gem&quot;" style="html=1;verticalAlign=bottom;endArrow=block;entryX=0;entryY=0;endSize=10;exitX=1.072;exitY=0.71;exitDx=0;exitDy=0;exitPerimeter=0;" edge="1" target="47" parent="1" source="31">
                    <mxGeometry relative="1" as="geometry">
                        <mxPoint x="680" y="940" as="sourcePoint"/>
                    </mxGeometry>
                </mxCell>
                <mxCell id="51" value="Fetch &quot;gem&quot;" style="html=1;verticalAlign=bottom;endArrow=block;entryX=0;entryY=0;endSize=10;" edge="1" target="50" parent="1" source="47">
                    <mxGeometry relative="1" as="geometry">
                        <mxPoint x="820" y="940" as="sourcePoint"/>
                    </mxGeometry>
                </mxCell>
                <mxCell id="54" value="AreYou &quot;gem&quot;" style="html=1;verticalAlign=bottom;endArrow=block;entryX=0;entryY=0;endSize=10;exitX=1.1;exitY=0.213;exitDx=0;exitDy=0;exitPerimeter=0;" edge="1" target="53" parent="1" source="50">
                    <mxGeometry relative="1" as="geometry">
                        <mxPoint x="1040" y="974" as="sourcePoint"/>
                    </mxGeometry>
                </mxCell>
                <mxCell id="55" value="True" style="html=1;verticalAlign=bottom;endArrow=open;dashed=1;endSize=8;exitX=0;exitY=0.95;entryX=1.1;entryY=0.754;entryDx=0;entryDy=0;entryPerimeter=0;" edge="1" source="53" parent="1" target="50">
                    <mxGeometry relative="1" as="geometry">
                        <mxPoint x="1040" y="1050" as="targetPoint"/>
                    </mxGeometry>
                </mxCell>
                <mxCell id="52" value="gem" style="html=1;verticalAlign=bottom;endArrow=open;dashed=1;endSize=8;exitX=0;exitY=0.95;entryX=1.1;entryY=0.833;entryDx=0;entryDy=0;entryPerimeter=0;" edge="1" source="50" parent="1" target="47">
                    <mxGeometry relative="1" as="geometry">
                        <mxPoint x="820" y="1016" as="targetPoint"/>
                    </mxGeometry>
                </mxCell>
                <mxCell id="49" value="gem" style="html=1;verticalAlign=bottom;endArrow=open;dashed=1;endSize=8;exitX=0;exitY=0.95;entryX=1.072;entryY=0.948;entryDx=0;entryDy=0;entryPerimeter=0;" edge="1" source="47" parent="1" target="31">
                    <mxGeometry relative="1" as="geometry">
                        <mxPoint x="680" y="1016" as="targetPoint"/>
                    </mxGeometry>
                </mxCell>
            </root>
        </mxGraphModel>
    </diagram>
</mxfile>